# xmcd
#
# Track frame offsets:
#	150
#	12550
#	23718
#	39280
#	50945
#	59803
#	72089
#	84507
#	98920
#	115766
#	126142
#	136715
#	153987
#	171200
#	180300
#	197059
#	218736
#	226917
#	246025
#	259633
#	263051
#	266161
#
# Disc length: 3629 seconds
#
# Revision: 1
# Processed by: cddbd v1.4PL0 Copyright (c) Steve Scherf et al.
# Submitted via: audiograbber 1.81.03
#
DISCID=300e2b16
DTITLE=36th Army Band (MI Corps Band) - Freedom's Frontier - Disc One
DYEAR=1999
DGENRE=Native US
TTITLE0=Fanfare for the Common Man
TTITLE1=Trooper Salute
TTITLE2=Army of the Nile
TTITLE3=The Klaxon
TTITLE4=Roger Young
TTITLE5=Washington Post March
TTITLE6=Hill Country
TTITLE7=American Soldier
TTITLE8=Stars and Stripes Forever
TTITLE9=God Bless America
TTITLE10=Pledge of Allegiance
TTITLE11=American Patrol
TTITLE12=My Funny Valentine
TTITLE13=Almost Like Being In Love
TTITLE14=Georgia
TTITLE15=Luck Be A Lady
TTITLE16=I Found a New Baby
TTITLE17=Ain't Misbehavin
TTITLE18=Bill Bailey
TTITLE19=MI Corps March
TTITLE20=Army Song
TTITLE21=National Anthem
EXTD=
EXTT0=
EXTT1=
EXTT2=
EXTT3=
EXTT4=
EXTT5=
EXTT6=
EXTT7=
EXTT8=
EXTT9=
EXTT10=
EXTT11=
EXTT12=
EXTT13=
EXTT14=
EXTT15=
EXTT16=
EXTT17=
EXTT18=
EXTT19=
EXTT20=
EXTT21=
PLAYORDER=
